<svg width="20" height="20" viewBox="0 0 20 20" fill="none" xmlns="http://www.w3.org/2000/svg">
<path d="M13.4314 13.0669L12.9159 13.8402C12.813 13.9945 12.6769 14.1262 12.4976 14.1736C11.9101 14.3288 10.3505 14.3989 7.97615 12.0245C5.60176 9.65014 5.67184 8.09055 5.82706 7.50311C5.87445 7.32377 6.00614 7.18769 6.16048 7.08479L6.93373 6.5693C7.50943 6.18549 7.665 5.40767 7.2812 4.83196L5.82079 2.64135C5.48579 2.13885 4.83998 1.94687 4.28488 2.18477L3.62609 2.46711C3.12563 2.68159 2.71739 3.06652 2.47389 3.55353C2.27045 3.9604 2.11278 4.38886 2.09141 4.84326C2.02409 6.27524 2.33808 9.80321 6.26778 13.7329C10.1975 17.6626 13.7254 17.9766 15.1574 17.9092C15.6118 17.8879 16.0403 17.7302 16.4471 17.5268C16.9341 17.2833 17.3191 16.875 17.5335 16.3746L17.8159 15.7158C18.0538 15.1607 17.8618 14.5149 17.3593 14.1799L15.1687 12.7195C14.593 12.3357 13.8152 12.4912 13.4314 13.0669Z" fill="#898989"/>
</svg>
